<svg xmlns="http://www.w3.org/2000/svg" viewBox="0 0 1280 800" role="img" aria-label="Exploring Islamic history">
  <defs>
    <linearGradient id="bg" x1="0" y1="0" x2="1" y2="1">
      <stop offset="0" stop-color="#102a5c"/>
      <stop offset="1" stop-color="#2563eb"/>
    </linearGradient>
  </defs>
  <rect width="1280" height="800" fill="url(#bg)"/>
  <circle cx="1140" cy="110" r="150" fill="#ffffff" opacity=".07"/>
  <circle cx="120" cy="700" r="190" fill="#ffffff" opacity=".05"/>

  <path d="M520 560 V330 a120 120 0 0 1 240 0 v230 Z" fill="#ffffff" opacity=".16"/>
  <path d="M640 150 q70 70 70 130 a70 70 0 0 1 -140 0 q0 -60 70 -130 Z" fill="#f6c945"/>
  <path d="M360 560 V400 a70 70 0 0 1 140 0 v160 Z" fill="#ffffff" opacity=".12"/>
  <path d="M780 560 V400 a70 70 0 0 1 140 0 v160 Z" fill="#ffffff" opacity=".12"/>
  <rect x="300" y="560" width="680" height="18" rx="9" fill="#ffffff" opacity=".3"/>
  <g>
    <rect x="240" y="660" width="800" height="8" rx="4" fill="#ffffff" opacity=".3"/>
    <circle cx="340" cy="664" r="18" fill="#f6c945"/>
    <circle cx="590" cy="664" r="18" fill="#ffffff" opacity=".8"/>
    <circle cx="840" cy="664" r="18" fill="#ffffff" opacity=".5"/>
  </g>
</svg>
