<svg xmlns="http://www.w3.org/2000/svg" viewBox="0 0 500 500" width="500" height="500">
  <!-- 3D Cube -->
  <g transform="translate(250, 120)">
    <!-- Left face (dark) -->
    <path d="M 0,80 L -120,0 L -120,-80 L 0,0 Z" fill="#1a1a1a"/>

    <!-- Right face (light) -->
    <path d="M 0,80 L 120,0 L 120,-80 L 0,0 Z" fill="#f0f0f0"/>

    <!-- Top face (medium) -->
    <path d="M 0,0 L -120,-80 L 0,-160 L 120,-80 Z" fill="#888888"/>

    <!-- Outline strokes -->
    <path d="M 0,80 L -120,0 L -120,-80 L 0,0 Z" fill="none" stroke="#000" stroke-width="2"/>
    <path d="M 0,80 L 120,0 L 120,-80 L 0,0 Z" fill="none" stroke="#000" stroke-width="2"/>
    <path d="M 0,0 L -120,-80 L 0,-160 L 120,-80 Z" fill="none" stroke="#000" stroke-width="2"/>
    <path d="M 0,0 L 0,80" stroke="#000" stroke-width="2"/>
  </g>

  <!-- Text: Cubico -->
  <text x="250" y="320" font-family="'Space Grotesk', Arial, sans-serif" font-size="72" font-weight="400" text-anchor="middle" fill="#000000">Cubico</text>

  <!-- Text: TECHNOLOGIES -->
  <text x="250" y="360" font-family="'Space Grotesk', Arial, sans-serif" font-size="24" font-weight="400" text-anchor="middle" fill="#000000" letter-spacing="8">TECHNOLOGIES</text>
</svg>
